<?xml version="1.0" encoding="UTF-8"?>
<svg xmlns="http://www.w3.org/2000/svg" xmlns:xlink="http://www.w3.org/1999/xlink" version="1.1" viewBox="0 0 100 100">
  <defs>
    <style>
      .cls-1 {
        fill: #296bf6;
      }

      .cls-2 {
        stroke: #fff;
        stroke-miterlimit: 10;
        stroke-width: 1.8px;
      }

      .cls-2, .cls-3 {
        fill: #fff;
      }

      .cls-4 {
        fill: #2bab38;
      }

      .cls-5 {
        fill: url(#_未命名漸層);
      }

      .cls-6 {
        fill: #0e9fdb;
      }

      .cls-7 {
        fill: #1070a8;
      }

      .cls-8 {
        fill: #d45141;
      }

      .cls-9 {
        display: none;
      }

      .cls-10 {
        fill: #c01e20;
      }
    </style>
    <linearGradient id="_未命名漸層" data-name="未命名漸層" x1="-325.2" y1="171" x2="-267.8" y2="253" gradientTransform="translate(346.5 262) scale(1 -1)" gradientUnits="userSpaceOnUse">
      <stop offset="0" stop-color="#ffb900"/>
      <stop offset="1" stop-color="#9100eb"/>
    </linearGradient>
  </defs>
  <!-- Generator: Adobe Illustrator 28.7.7, SVG Export Plug-In . SVG Version: 1.2.0 Build 194)  -->
  <g>
    <g id="_圖層_1" data-name="圖層_1">
      <g id="_圖層_1-2" data-name="圖層_1" class="cls-9">
        <path class="cls-4" d="M81.7,0H18.2C8.2,0,0,8.1,0,18.1v63.5c0,10,8.1,18.2,18,18.2h63.5c10,0,18.2-8.1,18.2-18V18.3c0-10-8.1-18.2-18-18.2"/>
        <path class="cls-3" d="M86.1,45.6c0-16.3-16.3-29.5-36.3-29.5S13.4,29.3,13.4,45.6s12.9,26.8,30.4,29.1c1.2.3,2.8.8,3.2,1.8.4.9.2,2.4.1,3.3,0,0-.4,2.6-.5,3.1-.2.9-.7,3.6,3.1,2,3.9-1.6,20.9-12.3,28.5-21.1h0c5.3-5.8,7.8-11.6,7.8-18.1"/>
        <path class="cls-4" d="M42.3,37.7h-2.5c-.4,0-.7.3-.7.7v15.8c0,.4.3.7.7.7h2.5c.4,0,.7-.3.7-.7v-15.8c0-.4-.3-.7-.7-.7"/>
        <path class="cls-4" d="M59.9,37.7h-2.5c-.4,0-.7.3-.7.7v9.4l-7.3-9.8s0,0,0,0h0s0,0,0,0c0,0,0,0,0,0,0,0,0,0,0,0,0,0,0,0,0,0,0,0,0,0,0,0,0,0,0,0,0,0,0,0,0,0,0,0,0,0,0,0,0,0h0s0,0,0,0c0,0,0,0,0,0,0,0,0,0,0,0,0,0,0,0,0,0,0,0,0,0,0,0,0,0,0,0,0,0,0,0,0,0,0,0,0,0,0,0,0,0h-2.5c-.4,0-.7.3-.7.7v15.8c0,.4.3.7.7.7h2.5c.4,0,.7-.3.7-.7v-9.4l7.3,9.8c0,0,.1.1.2.2,0,0,0,0,0,0,0,0,0,0,0,0,0,0,0,0,0,0,0,0,0,0,0,0s0,0,0,0c0,0,0,0,0,0,0,0,0,0,0,0,0,0,0,0,0,0,0,0,.1,0,.2,0h2.5c.4,0,.7-.3.7-.7v-15.8c0-.4-.3-.7-.7-.7"/>
        <path class="cls-4" d="M36.2,51h-6.9v-12.6c0-.4-.3-.7-.7-.7h-2.5c-.4,0-.7.3-.7.7v15.8h0c0,.2,0,.4.2.5,0,0,0,0,0,0,0,0,0,0,0,0,.1.1.3.2.5.2h10.2c.4,0,.7-.3.7-.7v-2.5c0-.4-.3-.7-.7-.7"/>
        <path class="cls-4" d="M74,41.7c.4,0,.7-.3.7-.7v-2.5c0-.4-.3-.7-.7-.7h-10.2c-.2,0-.4,0-.5.2,0,0,0,0,0,0,0,0,0,0,0,0-.1.1-.2.3-.2.5h0v15.8h0c0,.2,0,.4.2.5,0,0,0,0,0,0,0,0,0,0,0,0,.1.1.3.2.5.2h10.2c.4,0,.7-.3.7-.7v-2.5c0-.4-.3-.7-.7-.7h-6.9v-2.7h6.9c.4,0,.7-.3.7-.7v-2.5c0-.4-.3-.7-.7-.7h-6.9v-2.7h6.9Z"/>
      </g>
      <g id="_圖層_2" data-name="圖層_2">
        <g>
          <circle class="cls-1" cx="50" cy="50" r="50"/>
          <path class="cls-2" d="M40.2,101.9v-35.1h-14.2v-12.5h14.2v-11.5c0-11.6,7.8-18.5,19.6-18.5s10.3.5,11.7.7v13.1h-9.5c-6.4,0-7.6,2.8-7.6,6.7v9.5h16.4l-2.3,12.5h-14.1v35.1h-14.2Z"/>
        </g>
      </g>
      <g id="_圖層_3" data-name="圖層_3" class="cls-9">
        <path class="cls-6" d="M56.9,30.5c-4.4,1.6-7.1,5.7-6.8,10.2v1.7c.1,0-1.6-.2-1.6-.2-6.4-.8-11.9-3.6-16.6-8.2l-2.3-2.3-.6,1.7c-1.3,3.8-.5,7.8,2.2,10.5,1.4,1.5,1.1,1.7-1.3.8-.8-.3-1.6-.5-1.6-.4-.2.2.6,3.5,1.3,4.7.9,1.8,2.8,3.5,4.8,4.5l1.7.8h-2c-2,0-2,0-1.8.8.7,2.3,3.5,4.7,6.5,5.8l2.2.7-1.9,1.1c-2.8,1.6-6.1,2.5-9.4,2.6-1.6,0-2.9.2-2.9.3,0,.4,4.3,2.3,6.7,3.1,7.4,2.3,16.3,1.3,22.9-2.6,4.7-2.8,9.4-8.3,11.6-13.7,1.2-2.9,2.4-8.1,2.4-10.6s.1-1.8,2.1-3.8c1.2-1.1,2.2-2.4,2.4-2.7.3-.7.3-.7-1.5,0-3,1.1-3.4.9-1.9-.7,1.1-1.1,2.4-3.2,2.4-3.8s-.5,0-1.1.4c-.6.4-2,.9-3.1,1.2l-1.9.6-1.7-1.2c-.9-.6-2.3-1.3-3-1.6-1.8-.5-4.5-.4-6.1.1ZM50,100C22.4,100,0,77.6,0,50S22.4,0,50,0s50,22.4,50,50-22.4,50-50,50Z"/>
      </g>
      <g id="_圖層_4" data-name="圖層_4" class="cls-9">
        <circle class="cls-10" cx="50" cy="50" r="50"/>
        <path class="cls-3" d="M80.6,37.5s-.6-4.3-2.5-6.2c-2.4-2.5-5-2.5-6.3-2.6-8.7-.6-21.9-.6-21.9-.6h0s-13.1,0-21.9.6c-1.2.1-3.9.2-6.3,2.6-1.9,1.9-2.5,6.2-2.5,6.2,0,0-.6,5.1-.6,10.1v4.7c0,5.1.6,10.1.6,10.1,0,0,.6,4.3,2.5,6.2,2.4,2.5,5.5,2.4,6.9,2.7,5,.5,21.3.6,21.3.6,0,0,13.1,0,21.9-.7,1.2-.1,3.9-.2,6.3-2.6,1.9-1.9,2.5-6.2,2.5-6.2,0,0,.6-5.1.6-10.1v-4.7c0-5.1-.6-10.1-.6-10.1M42.8,58.9v-19.2s18.5,9.6,18.5,9.6l-18.5,9.6Z"/>
      </g>
      <g id="_圖層_5" data-name="圖層_5" class="cls-9">
        <g>
          <circle class="cls-8" cx="50" cy="50" r="50"/>
          <g>
            <path class="cls-3" d="M38.6,76.5c-14.9,0-26.9-11.9-26.9-26.5s12.1-26.5,26.9-26.5,12.8,2.3,17.7,6.5l-6.9,7.7c-3-2.6-6.8-4-10.8-4-9.1,0-16.5,7.3-16.5,16.2s7.4,16.2,16.5,16.2,12.7-3.7,14.4-10.3h-14.3v-10.2h25.3v5.1c0,15.4-10.2,25.7-25.4,25.7Z"/>
            <polygon class="cls-3" points="92.1 45.7 84.3 45.7 84.3 37.8 78.1 37.8 78.1 45.7 70.3 45.7 70.3 51.9 78.1 51.9 78.1 59.7 84.3 59.7 84.3 51.9 92.1 51.9 92.1 45.7"/>
          </g>
        </g>
      </g>
      <g id="_圖層_6" data-name="圖層_6" class="cls-9">
        <circle class="cls-7" cx="50" cy="50" r="50"/>
        <path class="cls-3" d="M34.5,78.1h-11.7v-37.5h11.7v37.5ZM28.6,35.4c-3.7,0-6.8-3-6.8-6.8s3-6.8,6.8-6.8,6.8,3,6.8,6.8c0,3.7-3,6.8-6.8,6.8ZM78.1,78.1h-11.7v-18.2c0-4.3,0-9.9-6.1-9.9s-7,4.7-7,9.6v18.5h-11.6v-37.5h11.2v5.1h.2c1.6-2.9,5.4-6.1,11-6.1,11.8,0,14,7.8,14,17.9v20.6h0Z"/>
      </g>
      <g id="_圖層_7" data-name="圖層_7" class="cls-9">
        <g>
          <circle class="cls-5" cx="50" cy="50" r="50"/>
          <g>
            <path class="cls-3" d="M64.3,81.2h-28.6c-9.3,0-16.9-7.6-16.9-16.9v-28.6c0-9.3,7.6-16.9,16.9-16.9h28.6c9.3,0,16.9,7.6,16.9,16.9v28.6c0,9.3-7.6,16.9-16.9,16.9ZM35.7,24c-6.5,0-11.7,5.3-11.7,11.7v28.6c0,6.5,5.3,11.7,11.7,11.7h28.6c6.5,0,11.7-5.3,11.7-11.7v-28.6c0-6.5-5.3-11.7-11.7-11.7h-28.6Z"/>
            <path class="cls-3" d="M50,65.6c-8.6,0-15.6-7-15.6-15.6s7-15.6,15.6-15.6,15.6,7,15.6,15.6-7,15.6-15.6,15.6ZM50,39.6c-5.7,0-10.4,4.7-10.4,10.4s4.7,10.4,10.4,10.4,10.4-4.7,10.4-10.4-4.7-10.4-10.4-10.4Z"/>
            <circle class="cls-3" cx="66.6" cy="33.4" r="3.6"/>
          </g>
        </g>
      </g>
    </g>
  </g>
</svg>