<?xml version="1.0" encoding="UTF-8"?><svg id="_圖層_1" xmlns="http://www.w3.org/2000/svg" viewBox="0 0 183.44 61.63"><defs><style>.cls-1{fill:#fefefe;fill-rule:evenodd;}</style></defs><path class="cls-1" d="M1.11,40.18c0-5.04.03-3.23,0-5.94,0-.54.04-.7.15-.7s.35.31.49.45c.21.24,2.29,2.49,4.44,4.79,1.38,1.48,2.91,3.18,3.35,3.65l-.15-7.1c-.01-.91-.11-1.22-.54-1.33-.2-.04-.4-.07-.6-.07-.15,0-.2-.04-.2-.1,0-.08.11-.1.28-.1.63,0,1.3.04,1.45.04s.62-.04,1.19-.04c.15,0,.25,0,.25.1,0,.06-.06.08-.15.1-.11,0-.2.03-.36.06-.39.08-.49.29-.49,1.26l-.03,8.16c0,.92-.03.99-.12.99-.11,0-.28-.15-1.02-.89-.15-.14-2.17-2.19-3.65-3.78-1.23-1.33-2.44-2.66-3.64-4.01l.18,6.69c.03,1.15.17,1.51.55,1.62.27.07.57.08.7.08.07,0,.11.03.11.08,0,.08-.08.11-.25.11-.79,0-1.35-.04-1.48-.04s-.71.04-1.34.04c-.14,0-.22,0-.22-.11,0-.06.04-.08.11-.08.11,0,.36,0,.57-.08.35-.1.42-.5.42-1.77-.01-.01-.01-2.08-.01-2.08ZM17.39,40.41c.06,0,.06-.04.04-.08l-1.1-3.09c-.07-.2-.08-.2-.15,0l-1.05,3.09s0,.08.03.08h2.23ZM15.02,40.9c-.07,0-.11.04-.14.11l-.61,1.75c-.14.39-.24.77-.24.99,0,.25.15.36.46.36h.1c.13,0,.17.04.17.1,0,.07-.11.1-.21.1-.31,0-.95-.04-1.1-.04-.14,0-.75.04-1.34.04-.15,0-.22-.03-.22-.1,0-.06.06-.1.17-.1.07,0,.2,0,.28,0,.6-.06.84-.52,1.08-1.1l2.79-7.36c.15-.4.2-.47.29-.47.07,0,.13.06.28.45.2.46,2.1,5.34,2.84,7.08.46,1.1.87,1.28,1.06,1.35.18.07.38.07.47.07.1,0,.17.03.17.1s-.06.1-.21.1c-.14,0-1.19,0-2.12-.03-.27,0-.35-.03-.35-.1,0-.04.04-.08.1-.1.06-.03.14-.1.06-.31l-1.1-2.81s-.06-.07-.11-.07h-2.57ZM25.25,40.85c0,1.08.01,2.07.07,2.58.04.34.07.53.42.61.17.04.43.06.55.06.11,0,.17.04.17.08,0,.07-.04.11-.18.11-.71,0-1.54-.04-1.59-.04-.06,0-.88.04-1.24.04-.15,0-.21-.03-.21-.1,0-.04.04-.1.15-.1s.2,0,.31,0c.27-.04.31-.21.36-.69.05-.5.05-1.51.05-2.56v-4.99c-.46,0-1.2,0-1.76,0-.89,0-1.09.15-1.28.45-.13.19-.18.36-.21.43-.04.1-.07.11-.13.11s-.07-.06-.07-.13c-.01-.08.2-1.01.28-1.38.04-.17.08-.22.13-.22.1,0,.36.13.61.15.49.06.88.07.89.07h4.58c.39,0,.81-.03,1.01-.07.18-.04.22-.06.27-.06.06,0,.08.07.08.13,0,.39-.03,1.31-.03,1.43,0,.13-.06.17-.1.17-.07,0-.1-.06-.1-.17,0-.04,0-.06-.01-.2-.06-.56-.24-.7-1.65-.71-.53,0-.96,0-1.37,0v5.01h0ZM30.98,38.76c0-1.84,0-2.18-.03-2.56s-.11-.59-.41-.64c-.14-.03-.24-.03-.32-.04-.1,0-.15-.04-.15-.1,0-.07.06-.1.21-.1.43,0,1.23.04,1.27.04.06,0,.87-.04,1.26-.04.14,0,.21.03.21.1,0,.06-.04.08-.15.1-.08,0-.15,0-.25.03-.4.06-.45.27-.47.67-.03.38-.01.7-.01,2.54v2.1c0,1.08-.01,2.05.06,2.56.06.4.11.56.48.64.18.04.47.06.53.06.13,0,.15.04.15.1s-.06.1-.2.1c-.71,0-1.52-.04-1.59-.04-.04,0-.87.04-1.26.04-.13,0-.22-.03-.22-.1,0-.06.06-.1.18-.1.07,0,.22,0,.34-.04.24-.06.28-.34.32-.67.07-.5.07-1.49.07-2.54l-.02-2.11h0ZM43.01,39.96c0-2.81-1.73-4.37-3.65-4.37s-3.51,1.2-3.51,3.84,1.52,4.55,3.87,4.55c.94,0,3.29-.47,3.29-4.02M34.56,39.79c0-1.86,1.44-4.64,4.89-4.64,2.77,0,4.87,1.65,4.87,4.46s-1.97,4.85-4.94,4.85c-3.43,0-4.82-2.54-4.82-4.67M46.58,35.73c0-.43.04-.57.15-.57.1,0,.34.28.43.38.13.14,2.07,2.12,4.02,4.12,1.09,1.06,2.49,2.5,2.85,2.83l-.15-5.81c0-.75-.1-1.01-.47-1.1-.18-.03-.36-.05-.54-.06-.14,0-.17-.06-.17-.11,0-.07.11-.08.25-.08.6,0,1.19.04,1.31.04.14,0,.57-.04,1.12-.04.15,0,.2,0,.2.08,0,.06-.04.1-.13.11-.08,0-.2,0-.35.04-.32.07-.42.21-.42,1.05l-.03,7.01c0,.7-.03.77-.13.77s-.24-.1-.92-.74c-.06-.03-2-1.95-3.21-3.14-1.45-1.51-2.85-2.96-3.2-3.32l.18,5.46c.03.96.11,1.33.46,1.41.22.06.46.06.57.06s.17.04.17.1c0,.07-.07.1-.22.1-.75,0-1.26-.04-1.36-.04s-.61.04-1.22.04c-.13,0-.21,0-.21-.1,0-.06.05-.1.2-.1.1,0,.25,0,.43-.06.31-.1.38-.47.38-1.49,0-6.67.03-4.52,0-6.84M61.66,40.41c.06,0,.06-.04.04-.08l-1.1-3.09c-.07-.2-.08-.2-.15,0l-1.05,3.09s0,.08.03.08h2.23ZM59.29,40.9c-.07,0-.11.04-.14.11l-.61,1.74c-.14.39-.24.77-.24.99,0,.25.15.36.46.36h.1c.13,0,.17.04.17.1,0,.07-.11.1-.21.1-.31,0-.95-.04-1.1-.04-.14,0-.75.04-1.34.04-.15,0-.22-.03-.22-.1,0-.06.06-.1.17-.1.07,0,.2,0,.28,0,.6-.06.84-.52,1.08-1.1l2.79-7.36c.15-.4.2-.47.29-.47.07,0,.13.06.28.45.2.46,2.1,5.34,2.84,7.08.46,1.1.87,1.28,1.06,1.35.18.07.38.07.47.07.1,0,.17.03.17.1s-.06.1-.21.1c-.14,0-1.19,0-2.12-.03-.27,0-.35-.03-.35-.1,0-.04.04-.08.1-.1.06-.03.14-.1.06-.31l-1.1-2.81s-.06-.07-.11-.07h-2.57ZM68.76,40.88c0,1.61.06,2.42.29,2.64.22.2.5.28,1.47.28.61,0,1.17,0,1.48-.39.14-.21.24-.49.27-.7.01-.11.04-.17.11-.17.06,0,.08.04.08.18s-.08.94-.17,1.26c-.08.28-.07.35-.74.35-.95,0-2-.07-3.39-.07-.46,0-.74.04-1.23.04-.14,0-.22-.03-.22-.11,0-.04.04-.08.15-.08s.22,0,.34-.03c.24-.04.32-.32.36-.66.08-.53.06-1.49.06-2.57v-2.1c0-1.84,0-2.15-.03-2.53-.03-.39-.08-.64-.56-.7-.08,0-.24,0-.35,0-.1,0-.15-.04-.15-.1,0-.07.07-.1.21-.1.59,0,1.42.04,1.45.04.2,0,1.05-.04,1.44-.04.14,0,.18.04.18.1s-.07.1-.15.1c-.1,0-.24,0-.38.03-.39.06-.48.28-.5.68-.03.38-.01.68-.01,2.53v2.13h-.01Z"/><path class="cls-1" d="M83.26,39.68c.07,0,.07-.04.06-.1l-1.33-3.77c-.07-.21-.14-.21-.21,0l-1.23,3.77c-.03.07,0,.1.04.1h2.67ZM80.44,40.18c-.07,0-.11.04-.14.11l-.84,2.47c-.13.35-.2.68-.2.94,0,.28.27.4.5.4h.13c.14,0,.18.03.18.08,0,.08-.13.11-.25.11-.34,0-.89-.04-1.05-.04-.15,0-.92.04-1.58.04-.18,0-.27-.03-.27-.11,0-.06.07-.08.2-.08.1,0,.22,0,.34-.03.64-.08.92-.61,1.17-1.31l3.17-8.67c.17-.46.22-.54.31-.54.08,0,.14.07.31.5.21.53,2.4,6.3,3.25,8.42.5,1.24.91,1.47,1.2,1.55.21.07.43.08.54.08.08,0,.15,0,.15.08,0,.08-.13.11-.28.11-.21,0-1.23,0-2.19-.03-.27,0-.42,0-.42-.1,0-.06.04-.08.1-.1.08-.03.17-.15.08-.38l-1.3-3.44c-.03-.06-.06-.08-.13-.08h-2.98v.02Z"/><path class="cls-1" d="M88.97,43.11c-1.21-1.05-1.52-2.44-1.52-3.62,0-.8.31-2.2,1.43-3.28.77-.74,1.92-1.26,3.82-1.26.65,0,1.18.06,1.87.16.45.07.91.14,1.25.16.11,0,.13.07.13.14,0,.11-.04.24-.07.69-.01.4-.01,1.14-.03,1.31-.01.2-.04.27-.11.27-.1,0-.11-.09-.11-.27,0-.41-.2-.97-.55-1.23-.43-.37-1.42-.72-2.51-.72-1.58,0-2.3.44-2.73.82-.92.84-1.14,1.86-1.14,3.11,0,2.36,1.92,4.43,4.42,4.43.96,0,1.67-.1,2.17-.58.25-.27.4-.62.47-1.02.03-.14.07-.21.16-.21.07,0,.07.1.07.2,0,.11-.19,1.26-.28,1.58-.08.23-.13.27-.33.35-.5.21-1.45.28-2.24.28-1.88-.01-3.16-.44-4.17-1.31"/><path class="cls-1" d="M106.17,44.05c-.1,0-.3,0-.48-.07-.2-.07-.61-.26-1.08-1.38-.75-1.77-2.68-6.73-2.88-7.2-.16-.4-.21-.45-.28-.45-.1,0-.14.07-.3.48l-2.84,7.48c-.24.6-.48,1.07-1.09,1.12-.09,0-.21,0-.28,0-.11,0-.17.04-.17.1,0,.07.07.1.23.1.6,0,1.22-.04,1.36-.04.16,0,.81.04,1.12.04.1,0,.21-.03.21-.1,0-.06-.04-.1-.17-.1h-.1c-.31,0-.47-.11-.47-.37,0-.23.1-.61.24-1.01l.63-1.77c.03-.07.07-.11.14-.11h2.58c.06,0,.08.03.11.07l1.12,2.85c.09.21,0,.28-.06.31-.06.02-.1.06-.1.1,0,.07.08.09.35.1.95.03,2.02.03,2.16.03.16,0,.21-.03.21-.1,0-.06-.06-.09-.16-.09ZM102.36,40.29h-2.27s-.06-.03-.03-.08l1.06-3.14c.07-.2.08-.2.16,0l1.12,3.14s.02.08-.04.08Z"/><path class="cls-1" d="M115.72,36.51c-1.5-1.52-3.83-1.39-5.08-1.39-.8,0-1.53.04-1.63.04-.04,0-.94-.04-1.52-.04-.13,0-.21.03-.21.11,0,.04.07.09.14.09.14,0,.27,0,.41.03.41.08.53.28.55.67.03.37.03.72.03,2.6v2.1c0,1.15.01,2.12-.07,2.64-.04.31-.13.61-.37.65-.11.03-.21.04-.33.04-.11,0-.16.06-.16.1,0,.07.07.1.2.1.21,0,.55-.03.82-.03.27,0,.46,0,.48,0,.04,0,.48.04,1.02.07.59.05,1.18.07,1.78.07,2.16,0,3.24-.84,3.79-1.39.7-.71,1.35-1.89,1.35-3.39.01-1.44-.57-2.43-1.2-3.06ZM114.77,42.8c-.74.74-1.79,1.11-2.95,1.11-1.48,0-1.93-.3-2.09-.54-.1-.13-.13-.51-.14-.95,0-.21-.01-1.32-.01-2.6v-1.43c0-.85,0-2.06.01-2.47,0-.13.04-.18.16-.24.09-.06.53-.1.72-.1,1.41,0,2.8.14,4,1.35.48.47,1.22,1.45,1.22,3.05,0,1.13-.29,2.2-.92,2.82Z"/><path class="cls-1" d="M119.4,38.61c0-1.86,0-2.2-.03-2.58-.03-.4-.13-.6-.54-.68-.11-.02-.23-.03-.34-.03-.1,0-.19-.04-.19-.09,0-.08.07-.11.21-.11.28,0,.67.03,1.46.04.07,0,2.6,0,2.88,0s.44-.03.55-.07c.08-.03.1-.04.16-.04.03,0,.06.03.06.1,0,.09-.08.28-.11.64-.02.24-.03.47-.04.74,0,.13-.03.21-.1.21s-.1-.06-.1-.16c-.01-.21-.06-.35-.1-.45-.08-.28-.21-.38-.92-.43-.18,0-1.59-.03-1.62-.03-.04,0-.07.03-.07.11v3.22c0,.09.01.14.08.14.17,0,1.62-.02,1.92-.04.33,0,.54-.06.65-.21.06-.08.1-.11.16-.11.03,0,.06,0,.06.08s-.06.34-.1.75c-.04.4-.04.68-.06.87-.01.11-.04.16-.1.16-.07,0-.08-.09-.08-.18s-.01-.23-.04-.34c-.06-.18-.14-.38-.68-.43-.33-.03-1.48-.06-1.7-.06-.09,0-.1.04-.1.1v1.04c0,.44-.02,1.69,0,1.93.03.53.1.8.4.92.21.1.55.13,1.04.13.27,0,.72,0,1.08-.08.43-.13.52-.41.64-.94.03-.14.07-.2.13-.2.08,0,.08.13.08.21,0,.1-.11.99-.16,1.24-.06.28-.16.31-.62.31-.94,0-1.33-.03-1.83-.03-.5,0-1.15-.04-1.68-.04-.33,0-.6.04-.94.04-.13,0-.2-.03-.2-.1,0-.06.06-.1.13-.1.09,0,.19,0,.28-.04.26-.06.43-.24.45-1.12.01-.48.03-1.06.03-2.14v-2.14h0Z"/><path class="cls-1" d="M136.35,42.69c.04.34.13,1.14.68,1.26.24.06.53.09.72.1.06,0,.19,0,.19.09s-.06.11-.21.11c-.26,0-1.79-.06-2.24-.08-.31-.03-.43-.06-.43-.13,0-.04.06-.1.13-.13.07-.03.11-.2.08-.4l-.62-6.08-3.01,6.1c-.27.55-.31.68-.44.68-.09,0-.16-.13-.43-.61-.23-.41-1.36-2.68-1.45-2.81-.08-.17-1.48-2.92-1.59-3.22l-.53,5.47c-.01.2-.01.33-.01.54,0,.16.07.37.35.43.16.03.26.03.4.04.11,0,.14.06.14.09,0,.1-.09.11-.24.11-.45,0-1.07-.04-1.18-.04-.14,0-.74.04-1.09.04-.13,0-.21,0-.21-.11,0-.03.06-.08.19-.08.1,0,.11,0,.27,0,.34-.03.47-.37.54-.94l.95-7.79c.03-.24.09-.35.16-.35s.11.04.21.23l3.81,7.37,3.62-7.35c.07-.16.13-.24.21-.24s.13.13.14.35l.89,7.36Z"/><path class="cls-1" d="M141.25,41.16c0-.68-.1-.94-.31-1.31-.08-.16-1.73-2.84-2.17-3.45-.38-.54-.53-.71-.72-.87-.2-.14-.38-.2-.67-.21-.09,0-.16-.04-.16-.11,0-.04.06-.09.17-.09.23,0,1.31.04,1.33.04.08,0,.55-.04,1.08-.04.14,0,.18.04.18.08,0,.06-.04.08-.16.11-.2.04-.23.11-.23.23,0,.14.09.28.19.47.18.35,2.06,3.36,2.27,3.72.23-.5,1.82-3.09,2.02-3.45.27-.47.33-.6.33-.75,0-.18-.17-.18-.33-.21-.11,0-.16-.06-.16-.11,0-.04.03-.09.17-.09.34,0,.64.04.87.04.19,0,1.01-.04,1.25-.04.13,0,.17.04.17.08,0,.07-.07.11-.17.11-.3,0-.51.04-.71.18-.21.14-.3.27-.53.58-.82,1.14-2.2,3.45-2.41,3.95-.17.44-.14.75-.14,1.12v1.04c0,.1,0,.62.03,1.14.03.34.06.58.5.67.18.04.43.06.53.06.11,0,.16.04.16.09,0,.07-.04.11-.17.11-.71,0-1.59-.04-1.63-.04-.03,0-.88.04-1.28.04-.14,0-.2-.04-.2-.11,0-.04.04-.09.14-.09.11,0,.24,0,.36-.04.24-.04.34-.34.37-.68.04-.51.04-1.02.04-1.14v-1.03h0Z"/><path class="cls-1" d="M152.53,37.99c.17-.82.61-2.26,1.53-3.11.65-.62,1.29-.8,1.77-.8.37,0,.72.1.92.28-.1.3-.37.94-.58,1.22l-.21.1c-.11-.3-.21-.72-.28-1.07-.04-.02-.08-.03-.13-.03-.51,0-1.39.33-2.1,3.41h1.55l-.24.43-1.45.21c-.34,1.53-.54,2.5-1.08,4.76-.45,1.89-.91,2.77-1.76,3.53-.58.51-1.09.72-1.59.72-.54,0-.95-.31-1.08-.58l.51-.71.09-.03c.33.47.75.58,1.11.58.41,0,.97-.04,1.53-2.37.37-1.48.67-2.78,1.33-5.93l-1.11-.23.24-.4h1.03v.02Z"/><path class="cls-1" d="M158.24,37.82c-2,0-3.7,2.1-3.69,4.26,0,1.49.88,2.31,1.93,2.31,1.96,0,3.68-2.13,3.68-4.19h0c0-1.29-.71-2.38-1.92-2.38ZM156.57,43.94c-.55,0-.99-.41-.99-1.6,0-1.55,1.02-4.07,2.54-4.07.69,0,1.01.64,1.01,1.67,0,1.71-1.23,4-2.56,4Z"/><path class="cls-1" d="M161.5,38.37c.51-.24,1.43-.55,1.8-.55h.03c0,.48-.09,1.3-.45,2.64h.06c1.16-2.17,2.12-2.64,2.78-2.64.23,0,.4.06.51.16,0,.21-.44,1.35-.67,1.69l-.23.11c-.07-.3-.13-.68-.2-1.11-.03,0-.06,0-.11,0-.34,0-1.21.72-2.22,3.04-.28.64-.47,1.25-.84,2.51l-.97.11c.77-2.44,1.38-4.86,1.42-5.54l-1.04-.11.13-.3Z"/><path class="cls-1" d="M1.29,54.54c0-2.31,0-2.73-.03-3.2-.03-.5-.15-.74-.64-.84-.12-.03-.37-.05-.5-.05C.06,50.45,0,50.42,0,50.36c0-.09.07-.12.24-.12.34,0,.74,0,1.07,0l.61.03c.1,0,3.05,0,3.4,0,.28,0,.52-.05.64-.07.07,0,.13-.07.21-.07.04,0,.06.06.06.13,0,.1-.07.28-.12.7-.01.15-.04.8-.07.98-.01.07-.04.16-.1.16-.09,0-.12-.07-.12-.19,0-.1-.01-.36-.09-.53-.1-.24-.25-.42-1.05-.5-.25-.03-1.87-.04-2.03-.04-.06,0-.09.04-.09.15v4.09c0,.1,0,.15.09.15.19,0,2.02,0,2.36-.03.36-.03.56-.06.7-.21.1-.12.16-.19.22-.19.04,0,.07.03.07.12s-.07.34-.12.83c-.03.3-.06.85-.06.95,0,.12,0,.28-.1.28-.07,0-.1-.06-.1-.13,0-.15,0-.3-.06-.49-.06-.21-.19-.46-.77-.52-.4-.04-1.87-.07-2.12-.07-.07,0-.1.04-.1.1v1.3c0,.5,0,2.22,0,2.54.04,1.02.27,1.22,1.72,1.22.39,0,1.04,0,1.42-.16.39-.16.56-.46.67-1.07.03-.16.06-.22.13-.22.09,0,.09.12.09.22,0,.12-.12,1.13-.19,1.44-.1.39-.22.39-.8.39-1.11,0-1.93-.03-2.51-.04-.58-.03-.93-.04-1.16-.04-.03,0-.28,0-.59,0-.3,0-.64.03-.86.03-.16,0-.24-.03-.24-.12,0-.04.03-.09.12-.09.13,0,.31-.03.44-.06.3-.06.37-.39.43-.82.07-.62.07-1.79.07-3.22l-.02-2.64h0Z"/><path class="cls-1" d="M16.98,53.35c-1.54-1.56-3.93-1.44-5.23-1.44-.77,0-1.6.03-1.75.03-.07,0-.92-.03-1.51-.03-.15,0-.21.03-.21.1,0,.04.06.1.1.1.15,0,.3,0,.44.03.43.06.5.27.53.7.03.4.03.76.03,2.71v2.22c0,1.22,0,2.21-.07,2.73-.06.37-.09.61-.34.67-.12.03-.28.06-.4.06-.07,0-.1.06-.1.1,0,.07.07.1.21.1.21,0,.52,0,.79-.03.27,0,.5,0,.53,0,.06,0,.5.03,1.07.07.56.03,1.26.07,1.82.07,2.22,0,3.4-.87,3.96-1.45.73-.74,1.41-1.96,1.41-3.54,0-1.48-.63-2.54-1.28-3.19ZM15.96,59.93c-.79.74-1.85,1.14-3.05,1.14-1.54,0-2-.27-2.16-.5-.1-.13-.13-.59-.15-.9-.01-.24-.01-1.41-.01-2.74h0v-4.21c0-.15.04-.21.16-.25.12-.05.53-.09.79-.09,1.56,0,2.99.16,4.23,1.41.53.53,1.23,1.56,1.23,3.16-.02,1.15-.36,2.35-1.04,2.98Z"/><path class="cls-1" d="M20.54,55.63c0-1.93,0-2.28-.03-2.68s-.1-.63-.53-.69c-.15-.02-.29-.03-.44-.03-.04,0-.1-.06-.1-.1,0-.07.06-.1.2-.1.59,0,1.36.03,1.48.03s.92-.03,1.3-.03c.15,0,.22.03.22.1,0,.04-.06.1-.12.1-.09,0-.16,0-.32.03-.34.06-.41.28-.44.69-.03.4-.03.75-.03,2.68v1.74c0,1.8.4,2.55.95,3.04.63.57,1.19.67,1.92.67.79,0,1.55-.35,1.99-.88.6-.72.73-1.74.73-3.01v-1.57c0-1.93,0-2.28-.03-2.68,0-.4-.09-.63-.51-.69-.15-.02-.29-.03-.44-.03-.06,0-.1-.06-.1-.1,0-.07.06-.1.2-.1.57,0,1.32.03,1.39.03.09,0,.7-.03,1.08-.03.15,0,.2.03.2.1,0,.04-.04.1-.1.1-.09,0-.16,0-.32.03-.35.07-.42.28-.45.69-.03.4,0,.75,0,2.68v1.33c0,1.35-.18,2.85-1.2,3.73-.94.8-1.93.91-2.69.91-.42,0-1.77-.03-2.68-.88-.63-.59-1.13-1.45-1.13-3.26v-1.82h0Z"/><path class="cls-1" d="M31.77,60.27c-1.26-1.08-1.57-2.5-1.57-3.69,0-.83.31-2.28,1.45-3.39.78-.75,1.95-1.33,3.92-1.33.51,0,1.24.04,1.87.15.48.09.89.18,1.32.19.13,0,.16.06.16.13,0,.1-.03.25-.06.7-.01.41-.01,1.1-.03,1.27-.01.19-.07.26-.15.26-.09,0-.1-.09-.1-.26,0-.48-.2-.98-.54-1.24-.45-.38-1.39-.69-2.53-.69-1.65,0-2.44.44-2.9.86-.95.88-1.16,1.99-1.16,3.25,0,2.39,1.89,4.51,4.64,4.51.97,0,1.61-.07,2.12-.59.28-.28.45-.8.5-1.04.03-.13.04-.18.13-.18.06,0,.12.09.12.18s-.18,1.17-.31,1.6c-.07.23-.1.28-.32.37-.53.2-1.49.28-2.33.28-1.92-.01-3.22-.47-4.23-1.34"/><path class="cls-1" d="M45.76,57.45c.06,0,.06-.03.04-.09l-1.27-3.41c-.07-.19-.15-.19-.22,0l-1.2,3.41c0,.06,0,.09.04.09h2.61ZM44.32,52.27c.16-.41.22-.48.31-.48.13,0,.18.18.31.45.23.53,2.3,5.66,3.09,7.55.47,1.11.82,1.27,1.1,1.36.17.05.34.07.51.07.07,0,.16.03.16.1s-.15.1-.29.1c-.19,0-1.14,0-2.03-.03-.25-.02-.45-.02-.45-.09,0-.06.03-.06.09-.09.07-.03.21-.13.12-.34l-1.16-2.85c-.03-.06-.04-.07-.12-.07h-2.97c-.06,0-.1.03-.13.1l-.73,1.99c-.12.31-.19.61-.19.83,0,.25.22.34.44.34h.12c.1,0,.13.04.13.1,0,.07-.07.1-.19.1-.31,0-1.01-.04-1.16-.04-.13,0-.78.04-1.3.04-.16,0-.25-.03-.25-.1,0-.06.06-.1.12-.1.09,0,.28,0,.38-.03.59-.07.83-.51,1.08-1.14l3.01-7.77h0ZM53.77,57.82c0,1.2,0,2.18.06,2.69.04.37.1.6.5.66.18.03.47.06.59.06.09,0,.1.06.1.1,0,.06-.06.1-.2.1-.7,0-1.52-.04-1.6-.04-.06,0-.95.04-1.33.04-.15,0-.21-.03-.21-.1,0-.04.03-.09.1-.09.12,0,.26-.03.38-.06.26-.06.34-.31.38-.67.06-.51.06-1.49.06-2.69v-5.22l-1.86.03c-.8,0-1.11.1-1.3.4-.15.22-.16.31-.2.4-.03.1-.07.12-.13.12-.03,0-.09-.03-.09-.1,0-.13.26-1.24.28-1.35.03-.07.09-.23.13-.23.09,0,.22.1.57.15.37.04.86.06,1.01.06h4.86c.42,0,.72-.03.92-.06.19-.03.31-.06.37-.06s.06.07.06.15c0,.38-.04,1.27-.04,1.42,0,.1-.06.16-.12.16s-.09-.04-.1-.22v-.13c-.05-.38-.33-.66-1.56-.69l-1.61-.03-.02,5.2h0ZM60.89,57.82c0,1.2,0,2.18.06,2.69.04.37.09.6.47.66.19.03.47.06.59.06.07,0,.1.06.1.1,0,.06-.06.1-.2.1-.72,0-1.55-.04-1.61-.04-.07,0-.88.04-1.27.04-.13,0-.21-.03-.21-.1,0-.04.03-.1.1-.1.12,0,.28-.03.4-.06.25-.06.29-.29.34-.66.06-.51.07-1.49.07-2.69v-2.19c0-1.93,0-2.28-.03-2.68-.03-.42-.13-.61-.41-.67-.13-.03-.26-.04-.4-.04-.06,0-.1-.06-.1-.1,0-.07.06-.1.21-.1.42,0,1.23.03,1.3.03.06,0,.89-.03,1.29-.03.15,0,.2.03.2.1,0,.04-.06.1-.1.1-.09,0-.18,0-.32.03-.35.07-.42.25-.45.69,0,.4,0,.75,0,2.68l-.02,2.18h0Z"/><path class="cls-1" d="M68.72,61.09c1.16,0,3.48-.61,3.48-4.21,0-2.99-1.81-4.55-3.85-4.55-2.15,0-3.7,1.35-3.7,4.05,0,2.89,1.74,4.71,4.07,4.71M68.43,51.85c2.9,0,5.09,1.77,5.09,4.67s-2.06,5.08-5.17,5.08c-3.53,0-5.03-2.65-5.03-4.89,0-2,1.55-4.86,5.11-4.86"/><path class="cls-1" d="M76.7,59.74c.03,1.02.15,1.33.5,1.42.23.06.53.07.64.07.06,0,.1.04.1.1,0,.07-.09.1-.23.1-.73,0-1.24-.04-1.36-.04s-.66.04-1.24.04c-.13,0-.2,0-.2-.1,0-.06.04-.1.1-.1.1,0,.34,0,.53-.07.32-.09.37-.42.37-1.55v-7.13c0-.5.07-.63.18-.63.15,0,.37.25.5.38.2.2,2.08,2.19,4.07,4.24,1.27,1.32,2.65,2.79,3.04,3.2l-.13-6.23c-.01-.8-.09-1.08-.48-1.16-.21-.04-.42-.06-.63-.06-.09,0-.1-.07-.1-.12,0-.07.1-.09.25-.09.59,0,1.2.03,1.35.03s.57-.03,1.1-.03c.13,0,.23,0,.23.09,0,.04-.06.12-.15.12-.06,0-.16,0-.31.03-.42.09-.45.34-.45,1.08l-.03,7.29c0,.82-.01.89-.1.89-.13,0-.26-.1-.98-.76-.13-.12-1.99-1.95-3.35-3.37-1.49-1.57-2.94-3.09-3.34-3.53l.12,5.89ZM91.76,57.45c.06,0,.06-.03.04-.09l-1.27-3.41c-.07-.19-.15-.19-.22,0l-1.2,3.41c-.01.06,0,.09.04.09h2.61ZM90.33,52.27c.16-.41.22-.48.31-.48.13,0,.18.18.31.45.23.53,2.3,5.66,3.09,7.55.47,1.11.82,1.27,1.1,1.36.17.05.34.07.51.07.07,0,.16.03.16.1s-.15.1-.29.1c-.19,0-1.14,0-2.03-.03-.25-.02-.45-.02-.45-.09,0-.06.03-.06.09-.09.07-.03.21-.13.12-.34l-1.16-2.85c-.03-.06-.04-.07-.12-.07h-2.97c-.06,0-.1.03-.13.1l-.73,1.99c-.12.31-.19.61-.19.83,0,.25.22.34.44.34h.12c.1,0,.13.04.13.1,0,.07-.07.1-.19.1-.31,0-1.01-.04-1.16-.04-.13,0-.78.04-1.3.04-.16,0-.25-.03-.25-.1,0-.06.06-.1.12-.1.09,0,.28,0,.38-.03.58-.07.83-.51,1.08-1.14l3.01-7.77h0ZM98.99,57.85c0,1.83.03,2.58.26,2.79.2.2.7.29,1.71.29.67,0,1.24,0,1.55-.38.16-.19.26-.45.31-.7.01-.09.06-.16.13-.16.06,0,.09.06.09.19s-.09.88-.19,1.24c-.09.29-.13.34-.82.34-.92,0-1.64,0-2.24-.04-.59,0-1.02-.03-1.4-.03-.06,0-.28,0-.53,0-.26,0-.54.03-.75.03-.13,0-.21-.03-.21-.1,0-.04.03-.1.1-.1.12,0,.28-.03.4-.06.25-.06.28-.29.34-.66.07-.51.07-1.49.07-2.69v-2.19c0-1.93,0-2.28-.03-2.68-.03-.42-.1-.63-.53-.69-.15-.02-.29-.03-.44-.03-.04,0-.1-.06-.1-.1,0-.07.06-.1.2-.1.59,0,1.39.03,1.46.03.06,0,1.02-.03,1.42-.03.13,0,.2.03.2.1,0,.04-.06.09-.1.09-.09,0-.28,0-.42.03-.38.07-.45.26-.48.7-.01.4-.01.75-.01,2.68v2.22h.01ZM111.91,55.89c0,.07.03.13.1.18.22.13.89.23,1.54.23.35,0,.76-.04,1.1-.28.51-.35.89-1.14.89-2.25,0-1.83-.97-2.93-2.53-2.93-.44,0-.83.04-.98.09-.07.03-.12.09-.12.18v4.78h0ZM110.74,54.62c0-2.28,0-2.69-.03-3.16-.03-.5-.15-.73-.63-.83-.12-.03-.37-.04-.5-.04-.06,0-.12-.03-.12-.09,0-.09.07-.12.23-.12.66,0,1.58.04,1.65.04.16,0,1.27-.04,1.73-.04.92,0,1.9.09,2.68.64.37.26,1.01.98,1.01,1.99,0,1.08-.45,2.17-1.77,3.38,1.2,1.54,2.19,2.84,3.04,3.75.79.83,1.42,1,1.79,1.05.19.03.38.04.57.04.07,0,.13.04.13.09,0,.09-.09.12-.35.12h-1.04c-.82,0-1.19-.07-1.57-.28-.63-.34-1.14-1.05-1.98-2.15-.61-.8-1.3-1.78-1.6-2.17-.06-.06-.1-.09-.19-.09l-1.8-.03c-.07,0-.1.04-.1.12v.35c0,1.4,0,2.56.07,3.18.04.42.13.75.57.8.2.03.53.06.66.06.09,0,.12.04.12.09,0,.07-.07.12-.23.12-.81,0-1.73-.04-1.8-.04-.01,0-.94.04-1.38.04-.16,0-.23-.03-.23-.12,0-.04.03-.09.12-.09.13,0,.31-.03.44-.06.29-.06.37-.38.42-.8.07-.61.07-1.77.07-3.18l.02-2.57h0ZM122.23,55.63c0-1.93,0-2.28-.03-2.68-.03-.42-.1-.63-.53-.69-.15-.02-.29-.03-.44-.03-.04,0-.1-.06-.1-.1,0-.07.06-.1.2-.1.59,0,1.42.03,1.49.03.09,0,2.78.02,3.07,0,.25,0,.48-.06.59-.07.06,0,.12-.06.18-.06.04,0,.06.06.06.12,0,.09-.07.23-.1.58-.01.12-.04.67-.07.82-.01.06-.06.13-.12.13-.07,0-.1-.06-.1-.16,0-.09-.01-.29-.07-.44-.09-.21-.22-.29-.92-.38-.22-.03-1.71-.04-1.86-.04-.06,0-.07.04-.07.13v3.38c0,.09,0,.13.07.13.16,0,1.86,0,2.15-.03.31-.03.5-.04.63-.18.09-.09.15-.16.19-.16s.07.03.07.1-.07.28-.1.69c-.03.25-.06.72-.06.8,0,.1-.03.23-.12.23-.06,0-.09-.04-.09-.12,0-.12,0-.25-.06-.41-.04-.18-.16-.32-.66-.38-.35-.04-1.73-.06-1.95-.06-.07,0-.09.04-.09.09v1.04c0,.42-.02,1.87,0,2.12.03.83.26,1,1.54,1,.34,0,.95,0,1.29-.13.34-.15.51-.37.59-.86.03-.15.06-.19.13-.19s.09.1.09.19-.1.94-.18,1.2c-.09.32-.22.32-.72.32-.97,0-1.71-.03-2.24-.04-.54-.03-.88-.03-1.07-.03-.03,0-.28,0-.56,0-.25,0-.54.03-.75.03-.13,0-.2-.03-.2-.1,0-.04.03-.1.1-.1.12,0,.28-.04.4-.06.25-.04.28-.29.34-.66.07-.51.07-1.49.07-2.69v-2.19h.01Z"/><path class="cls-1" d="M128.89,61.26c-.18-.09-.19-.13-.19-.47,0-.61.06-1.11.07-1.32,0-.13.03-.2.1-.2s.12.04.12.15c0,.1,0,.28.04.45.2.91,1.17,1.23,2.03,1.23,1.27,0,1.93-.72,1.93-1.65s-.48-1.32-1.62-2.17l-.58-.44c-1.39-1.04-1.84-1.8-1.84-2.66,0-1.46,1.16-2.34,2.85-2.34.51,0,1.02.07,1.33.15.25.06.35.06.45.06s.13.01.13.09c0,.06-.06.47-.06,1.32,0,.19-.02.28-.1.28-.09,0-.1-.06-.12-.16-.01-.15-.12-.48-.19-.61-.09-.15-.51-.61-1.67-.61-.94,0-1.71.47-1.71,1.35,0,.79.4,1.24,1.67,2.11l.37.25c1.57,1.07,2.11,1.93,2.11,3,0,.73-.28,1.52-1.2,2.12-.54.35-1.35.44-2.05.44-.59-.03-1.34-.12-1.87-.37"/><path class="cls-1" d="M136.9,55.63c0-1.93,0-2.28-.03-2.68-.03-.42-.1-.63-.53-.69-.15-.02-.29-.03-.44-.03-.04,0-.1-.06-.1-.1,0-.07.06-.1.2-.1.59,0,1.42.03,1.49.03.09,0,2.78.02,3.07,0,.25,0,.48-.06.59-.07.06,0,.12-.06.18-.06.04,0,.06.06.06.12,0,.09-.07.23-.1.58,0,.12-.04.67-.07.82,0,.06-.06.13-.12.13-.07,0-.1-.06-.1-.16,0-.09,0-.29-.07-.44-.09-.21-.22-.29-.92-.38-.22-.03-1.71-.04-1.86-.04-.06,0-.07.04-.07.13v3.38c0,.09,0,.13.07.13.16,0,1.86,0,2.15-.03.31-.03.5-.04.63-.18.09-.09.15-.16.19-.16s.07.03.07.1-.07.28-.1.69c-.03.25-.06.72-.06.8,0,.1-.03.23-.12.23-.06,0-.09-.04-.09-.12,0-.12,0-.25-.06-.41-.04-.18-.16-.32-.66-.38-.35-.04-1.73-.06-1.95-.06-.07,0-.09.04-.09.09v1.04c0,.42-.02,1.87,0,2.12.03.83.26,1,1.54,1,.34,0,.95,0,1.29-.13.34-.15.51-.37.59-.86.03-.15.06-.19.13-.19s.09.1.09.19-.1.94-.18,1.2c-.09.32-.22.32-.72.32-.97,0-1.71-.03-2.24-.04-.54-.03-.88-.03-1.07-.03-.03,0-.28,0-.56,0-.25,0-.54.03-.75.03-.13,0-.2-.03-.2-.1,0-.04.03-.1.1-.1.12,0,.28-.04.4-.06.25-.04.28-.29.34-.66.07-.51.07-1.49.07-2.69v-2.19h.01ZM148.68,57.45c.06,0,.06-.03.04-.09l-1.27-3.41c-.07-.19-.15-.19-.22,0l-1.2,3.41c0,.06,0,.09.04.09h2.61ZM147.25,52.27c.16-.41.22-.48.31-.48.13,0,.18.18.31.45.23.53,2.3,5.66,3.09,7.55.47,1.11.82,1.27,1.1,1.36.17.05.34.07.51.07.07,0,.16.03.16.1s-.15.1-.29.1c-.19,0-1.14,0-2.03-.03-.25-.02-.45-.02-.45-.09,0-.06.03-.06.09-.09.07-.03.2-.13.12-.34l-1.16-2.85c-.03-.06-.04-.07-.12-.07h-2.97c-.06,0-.1.03-.13.1l-.73,1.99c-.12.31-.19.61-.19.83,0,.25.22.34.44.34h.12c.1,0,.13.04.13.1,0,.07-.07.1-.19.1-.31,0-1.01-.04-1.16-.04-.13,0-.78.04-1.3.04-.16,0-.25-.03-.25-.1,0-.06.06-.1.12-.1.09,0,.28,0,.38-.03.59-.07.83-.51,1.08-1.14l3.01-7.77h0ZM155.85,56.68c0,.07.03.12.09.16.19.1.85.19,1.42.19.31,0,.66,0,.97-.22.44-.29.78-.95.78-1.9,0-1.55-.85-2.44-2.22-2.44-.38,0-.79.04-.92.07-.06.03-.1.07-.1.15v3.99h-.02ZM154.73,55.63c0-1.93,0-2.28-.03-2.68-.03-.42-.1-.63-.53-.69-.15-.02-.29-.03-.44-.03-.04,0-.1-.06-.1-.1,0-.07.06-.1.2-.1.59,0,1.45.03,1.52.03.13,0,1.21-.03,1.61-.03.82,0,1.73.07,2.4.54.32.23.89.83.89,1.7,0,.92-.38,1.81-1.58,2.84,1.05,1.32,1.95,2.44,2.69,3.22.69.7,1.11.82,1.43.86.25.04.38.04.45.04s.12.06.12.1c0,.07-.07.1-.31.1h-.8c-.73,0-1.05-.07-1.38-.25-.56-.29-1.02-.89-1.76-1.83-.54-.67-1.11-1.48-1.39-1.81-.06-.06-.09-.07-.18-.07l-1.64-.03c-.06,0-.09.03-.09.1v.29c0,1.2,0,2.17.06,2.68.04.37.12.6.51.66.18.03.45.06.57.06.09,0,.1.06.1.1,0,.06-.06.1-.21.1-.7,0-1.52-.04-1.58-.04,0,0-.88.04-1.27.04-.13,0-.2-.03-.2-.1,0-.04.03-.1.1-.1.12,0,.28-.03.39-.06.25-.06.28-.29.34-.66.07-.51.07-1.49.07-2.69l.04-2.19h0Z"/><path class="cls-1" d="M164.41,60.27c-1.26-1.08-1.57-2.5-1.57-3.69,0-.83.31-2.28,1.45-3.39.77-.75,1.95-1.33,3.92-1.33.51,0,1.24.04,1.87.15.48.09.89.18,1.32.19.13,0,.16.06.16.13,0,.1-.03.25-.06.7-.01.41-.01,1.1-.03,1.27-.01.19-.07.26-.15.26-.09,0-.1-.09-.1-.26,0-.48-.2-.98-.54-1.24-.45-.38-1.39-.69-2.53-.69-1.65,0-2.44.44-2.9.86-.95.88-1.16,1.99-1.16,3.25,0,2.39,1.89,4.51,4.64,4.51.97,0,1.61-.07,2.12-.59.28-.28.45-.8.5-1.04.03-.13.04-.18.13-.18.06,0,.12.09.12.18s-.18,1.17-.31,1.6c-.07.23-.1.28-.32.37-.53.2-1.49.28-2.33.28-1.92-.01-3.22-.47-4.23-1.34"/><path class="cls-1" d="M182.21,57.82c0,1.2,0,2.18.07,2.69.04.37.07.6.47.66.18.03.47.06.57.06.09,0,.12.06.12.1,0,.06-.07.1-.22.1-.7,0-1.52-.04-1.6-.04-.06,0-.89.04-1.27.04-.15,0-.21-.03-.21-.1,0-.04.03-.1.1-.1.12,0,.26-.03.38-.06.26-.06.31-.31.35-.67.06-.51.06-1.45.06-2.65v-1.24c0-.06-.03-.07-.07-.07h-5.37s-.07,0-.07.07v1.24c0,1.2,0,2.15.06,2.66.04.37.09.6.47.66.19.03.47.06.59.06.07,0,.1.06.1.1,0,.06-.06.1-.2.1-.72,0-1.54-.04-1.59-.04-.07,0-.89.04-1.29.04-.13,0-.2-.03-.2-.1,0-.04.03-.1.1-.1.12,0,.28-.03.39-.06.25-.06.28-.29.34-.66.07-.51.07-1.49.07-2.69v-2.19c0-1.93,0-2.28-.03-2.68-.03-.42-.1-.63-.53-.69-.15-.02-.29-.03-.44-.03-.04,0-.1-.06-.1-.1,0-.07.06-.1.2-.1.59,0,1.4.03,1.48.03.06,0,.88-.03,1.27-.03.15,0,.2.03.2.1,0,.04-.06.1-.1.1-.09,0-.18,0-.32.03-.35.07-.42.25-.45.69,0,.4,0,.78,0,2.71v.26c0,.07.03.07.07.07h5.37s.07,0,.07-.07v-.27c0-1.93,0-2.31-.03-2.71-.03-.42-.09-.63-.51-.69-.15-.02-.29-.03-.44-.03-.06,0-.1-.06-.1-.1,0-.07.06-.1.21-.1.57,0,1.4.03,1.46.03.07,0,.89-.03,1.27-.03.15,0,.22.03.22.1,0,.04-.06.1-.12.1-.09,0-.16,0-.32.03-.34.07-.41.25-.44.69-.03.4-.03.75-.03,2.68v2.2h0Z"/><path class="cls-1" d="M14.32,14.42c-.3.39-.62.76-.91,1.17.61.18,1.52.3,2.21.12-.53-.33-.8-.92-1.3-1.29M7.16,11.74c.49.17,1.25.47,1.88.41.48-.05.68-.47.69-.95.01-.81-.41-1.65-.94-1.82-.33,1-1.16,1.5-1.63,2.36M17.64,5.29c.24.34.66.72.62,1.33-.03.46-.34.64-.49,1.01.41.48-.43.49-.16.78-.84.67-2.28.81-3.68.84.06.74.3,1.28.49,1.88.77-.72,1.32-1.68,2.67-1.84.77.94-.18,1.78-.68,2.41-.38.47-.7.91-1.01,1.28.46.76.91,1.53,1.53,2.13-.12.12-.01.27.03.39.01.12-.19.05-.13.23.28.3.85.07,1.33.09.41.01.77.09,1.04.22-.07.25.01.47,0,.75-.44.06-.87.39-1.33.43-.18.02-.34-.04-.52-.03-.43.01-.89.1-1.36.11-1.72.02-3.34.17-4.95.1-.54-.02-.97.09-1.46.11-1.4.04-2.75-.08-4.04-.07-.75.01-1.46-.05-2.05-.05-.11.51.16.86.2,1.33,1.04-.28,1.87.32,2.8.3.41,0,.94-.1,1.33-.2.17-.05.31-.15.49-.17.14-.01.3.07.46.06.15-.01.25-.11.39-.1.53.02,1.11.45,1.69.51.89.09,1.73-.17,2.7.01.6-.4,1.32.1,2.02.12.58.01,1.18-.22,1.79-.18.16.01.34.09.49.09.45,0,.91-.25,1.37-.2.6-1.48.21-3.31.23-5.08.01-1.42-.14-2.92,0-4.33.05-.49.17-.9.16-1.33-.02-.67-.23-1.31-.16-2.05.03-.33.18-.65.13-.98-.56.15-1.33.15-1.94.1M14.48,4.92c-1.44,0-3.29.03-4.68.36-.26-.27-.71,0-1.04.04-.46.03-.94-.17-1.43-.16-.31.01-.62.09-.92.08-.43-.03-.85-.16-1.3-.16-.69,0-1.36.1-2.01.17.13.61.29,1.11.23,1.86-.05.51-.4,1.14-.39,1.53,0,.32.25.65.28.98.02.25.02.5,0,.75-.07.87-.06,1.84-.13,2.7-.02.18-.1.37-.1.56,0,.46.26.95.1,1.4.49-.08.88-.22,1.39-.14.36.04.66.3.96.34.34.05.71-.05,1.08-.01.25.03.52.14.78.19,1.39.25,2.77.46,4,.04.47-1.15,1.29-1.93,1.89-2.94-.45-1.08-.98-2.08-1.34-3.24h-.52c.04.84.36,1.92.1,2.73-.1.3-.54,1.05-.71,1.21-.11.09-.33.13-.52.23-.15.08-.29.26-.42.29-.4.08-.88-.12-1.27-.09-.3.03-.57.14-.86.14-.63.01-1.14-.18-1.62-.37-.63.44-1.6.07-1.93-.38-.17-.48-.03-.97.29-1.21.14-.09.3-.09.45-.16.96-.44,1.56-1.31,1.99-2.29-.62-.46-1.82-.13-2.21-.77-.13-.23-.28-.84-.19-1.2.05-.23.69-.85,1.17-1.05.3-.11.62-.14.94-.11.51.08.63.53,1.1.71.42.16.88.03,1.34.09.48.06.93.26,1.43.25.39,0,.72-.12,1.07-.11.18-.42,0-.93.16-1.33.07-.18.3-.28.45-.39.56-.39.76-.28,1.08.25.26.46.5.88.46,1.59.82.04,1.68.28,2.5.11.14-.31.33-.69.19-1.04-.1-.25-.47-.26-.52-.52.15-.17.59-.48.55-.62-.59-.13-1.37-.08-1.87-.31M0,5.38v-.78c.07-.45.26-.75.49-1.11.22-.34.35-.73.59-1.01.41-.51,1.13-1.26,1.92-1.28.89-.03,1.08.68,1.69.83.34.08.72-.03,1.08.03.61.09,1.16.47,1.79.6.72.15,1.38.28,2.05.38,1.59-.65,3.52-.21,5.37-.14.99.04,1.93,0,2.83.15s1.75.3,2.64.34c.14-.2.51-.18.52-.52.23-.11.4-.38.65-.4.47-.03,1.21.95,1.23,1.36.02.4-.34.77-.42,1.27-.04.25-.04.49-.1.71-.07.25-.22.43-.23.65-.03.55.1,1.13.13,1.69.03.5-.1,1.02-.19,1.57-.29,1.69-.25,3.46-.35,5.11-.04.51.1,1.03.1,1.53,0,.26-.06.55-.1.82-.02.11-.09.25-.1.36-.01.12.07.26.07.39-.04.48-.31.95-.42,1.34.02.22.1.38.06.65-.38.47-.77.88-1.3,1.08-.89.34-2.2.21-3.35.25-.57.02-1.15.05-1.72.08-.62.03-1.19-.13-1.76-.12-.52.01-1.04.01-1.53.01-.09,0-.18-.06-.26-.06-.09,0-.3.08-.46.1-.54.06-1.08.08-1.63.04-.38-.03-.72-.23-1.17-.25-.7-.03-1.21.14-1.85.24-.85.14-1.86-.06-2.6.08-.47.09-.74.29-1.07.24-.48-.08-.86-.5-.88-1.04,0-.12-.05-.17-.07-.29-.04-.27.07-.45.07-.68,0-.24-.34-.68-.42-.94-.34-1.02-.53-2.06-.55-3.35-.02-.81-.07-1.61-.03-2.44.04-.82.04-1.65.03-2.51,0-.44-.25-.92-.26-1.36-.05-.45,0-.85.07-1.35.1-.9-.31-1.55-.56-2.27"/><path class="cls-1" d="M56.96,11.48c.23.26.35.63.59.88.21-.29.41-.59.59-.91-.38-.06-.87-.12-1.18.03M57.48,5.07c-.17.37-.28.81-.29,1.34.22.04.39.14.61.18.12-.55.29-1.06.36-1.66-.22.06-.45.1-.68.14M57.48,3.08c.11.06.22.12.32.19.37,0,.54-.21.88-.23.14-.32.37-.53.42-.92.25-.08.53-.12.88-.1.32.17.48.38.49.88,0,.3,0,.73-.03.97-.06.41-.37.89-.56,1.34-.2.5-.47.94-.52,1.37.47.28,1.2-.29,1.59.12.3.97-.5,1.51-1.53,1.61-1.17.12-2.62.15-3.42-.17-.32.25-.76-.12-1.1.07-.08.46.11.94.03,1.4,0,.11-.1.22-.13.33-.17.65-.07,1.33-.17,1.98-.09.68-.52,1.32-.39,2.05.44-.19.72-.52,1.33-.4.34.06.63.45.98.45-.13-.54-.49-1.01-.82-1.53-.17-.27-.46-.48-.52-.78-.12-.6.19-1.17.33-1.7.73-1.1,2.54-.34,3.45.07.21-.12.24-.33.49-.36.46-.05.98.53.91,1-.04.22-.38.51-.55.78-.13.2-.17.45-.29.62-.15.2-.44.35-.61.56-.14.17-.18.37-.29.49-.15.15-.37.18-.49.29-.06.22.02.53.06.75.33.07.64.23.98.22.41-.01.72-.3,1.1-.33.15.21.25.47.45.61.02.18-.2.16-.09.32-.4.24-.7.65-1.21.82-.38.13-.87.03-1.24.27-.26,2.76-1.26,4.8-4.13,4.97-.41-.15-1.16-.44-.98-1.13,0,0,.08-.14.1-.16.27-.29.94-.11,1.4-.24,1.53-.41,2.12-1.66,2.15-3.56-.8-.41-2.11.07-2.83-.4-.58,1.37-2.44,2.41-4.42,1.79-.33-.35-.88-1.02-.65-1.68.12-.36.55-.44.91-.63.18.15.36.31.62.39,1.64.25,2.55-.79,2.8-2.43.23-1.54.22-3.35-.26-4.58-.89-.33-1.66-.05-2.6.02-.06-.1-.16-.16-.23-.26.12-.72-.16-1.46.29-1.95.11-.12.28-.13.45-.23.43-.25,1.13-.79,1.76-.37.12.08.19.23.36.32.15.08.38.14.59.22.45.2.81.36,1.56.28.12-.41.1-.98.06-1.46-.62-.07-1.27-.17-1.85-.25-.22-.03-.45,0-.62-.06-.18-.07-.27-.27-.46-.29-.16-.02-.28.11-.42.1-.21,0-.29-.12-.46-.19-.22-.68-.09-1.67.29-2.18.18-.24.68-.57.98-.63.3-.05.58.11.88.09.19,0,.3-.13.52-.13.17.12.21.49.26.81.25.25.67.32,1.01.48,0-1.17.13-2.22.85-2.68.16-.05.16.08.3.07.15-.02.25-.25.52-.14.27.12.55,1.19.59,1.69.02.5-.1,1-.07,1.36"/><path class="cls-1" d="M64.57,7.98c-.32-.52-1.27-.34-1.63.05.36.58.71,1.2.98,1.88.14.35.25.7.39,1.04.14.33.35.62.49.94.08.18.08.43.26.55.14-1.36.6-2.84.36-4.26-.3-.06-.57-.14-.85-.2M65.22,5.83c.22.22.56.31.88.44.53.22,1.14.55,1.79.67.51.1,1.21.18,1.66-.01.14-.06.34-.32.49-.33.49-.05.45.63.26.94-.47.79-1.56,1.2-2.8,1.19-.14.71-.53,1.5-.46,2.21.01.12-.11.11-.13.2.07,1.07-.59,1.69-.42,2.96-.43.55-.08,1.03.19,1.69.38.91.97,2.18,1.43,2.92.3.48.96.98,1.49,1.13.59.17,1.28.04,1.53-.3.14-.2.22-.76.49-.76.41,0,.33,1.06.19,1.43-.23.64-.49.87-1.07,1.15-.79.37-2.61.91-3.42.19-.56-.51-.73-1.45-1.04-2.27-.3-.81-.79-1.45-.98-2.3-.91.54-1.9,1.48-3.31,1.65-.63.08-1.23-.13-1.95-.12-.15-.12-.32-.22-.49-.32-.19-.37-.15-.8-.17-1.3.09-.18.27-.25.43-.36,1.34.3,2.97.14,3.84-.58.21-.17.69-.7.68-1.01,0-.21-.39-.74-.55-1.07-.21-.4-.36-.76-.52-1.1-.34-.75-.61-1.75-.92-2.34-.2-.4-.4-.68-.55-1.17-.05-.21-.21-.41-.21-.55,0-.35.43-.62.49-.95-.12-.11-.42-.06-.55-.26-.15-.2-.14-.66-.04-.91.05-.1.15-.13.23-.23.11-.13.11-.21.2-.26.17-.1.34-.08.49-.13.84-.32,1.73-1.45,1.5-2.55-.04-.19-.23-.4-.19-.65.03-.32.44-.37.55-.82.76-.37,1.67.39,1.85,1.06.28,1.08-.68,2.15-.89,2.82M38.3,3.39c.64-.07,1.34.02,2.01.02.17,0,.35-.05.52-.04.23.02.45.2.72.25.35.07.84-.01,1.3.02.53.04.94.23,1.37.12.11-.03.17-.12.29-.16.12-.05.25-.03.36-.07.36-.14.88-.61,1.53-.34.32.14.69.74.52,1.3-.09.29-.42.44-.59.75-.44.86-.21,2.04-.49,3,0,.15-.09-.09-.13.06,0,1.09-.68,1.87-1.5,2.13-.16-.08-.4-.08-.56-.16-.42-.36-.05-1.04.07-1.46.27-1,.05-2.22.23-3.39-1.11-.17-2.36-.17-3.45-.36-.36-.06-.72-.2-1.04-.22-.73-.04-1.37.24-1.95.47-.52.03-1.07-.3-1.66-.24-.17.02-.28.14-.45.2-.65.22-1.48.28-2.38.34-.51.04-1.11.19-1.78.14-.82-.05-1.58-.42-2.38-.24.13,1.28-.2,3.13.32,4.13-.2.23-.19.65-.45.82-.12.09.13.19.03.26-.13-.11-.32.03-.48-.06-.41-.49-1.15-1.09-1.27-1.97-.03-.21.01-.42-.03-.65-.06-.33-.23-.66-.23-1.01,0-.16.08-.32.06-.49-.03-.61-.72-.96-.87-1.59-.23-.88.24-1.88.78-2.22.68-.44,2.29-.49,2.6.44.61.06,1.06.14,1.53.31.43.15.86.46,1.36.48.36.01.68-.13,1.08-.14.79-.01,1.93.02,2.18-.5.11-.23.08-.56,0-.72-.2-.4-.88-.26-.95-.74-.03-.21.15-.56.29-.75.44-.6.99-1.09,2.05-.7.33.13.76.36,1.01.55.72.53.72,1.66.43,2.43"/><path class="cls-1" d="M41.16,7.7c.5.18.54.92.2,1.3-.46-.01-.73.37-1.17.5-1.21.34-2.8-.17-4.04.16.07,1.01.48,1.68.91,2.34.57-.19,1-.02,1.46.25.26.15.37.38.62.39.22,0,.44-.21.65-.33.6-.34,1.12-.81,1.53-1.38-.11-.22-.08-.6.03-.78.49-.05.59-.47,1.17-.36.48.09,1.32.99,1.2,1.85-.07.47-.41.46-.81.66-.39.19-.65.62-1.07.76-.22.53-1.17.62-1.6,1.05.08.5.44.91.75,1.33.6.82,1.22,1.63,1.86,2.43.41.51.75,1.03,1.27,1.32.65.37,1.91.77,2.8.27.18-.1.38-.52.59-.52.29,0,.58.61.52,1.04-.03.19-.19.34-.36.52-.37.42-1.01,1.09-1.75,1.15-.17.01-.36-.06-.52-.06-.37-.01-.7.1-1.04.1-.24,0-.45-.16-.71-.09-.3-.24-.75-.29-1.05-.54-.23-.2-.36-.57-.55-.85-.2-.29-.4-.58-.59-.81-.62-.74-1.19-1.55-1.76-2.39-.54-.8-1.25-1.55-1.66-2.49.43,1.86,0,3.73-.69,4.95-.72,1.27-1.81,2.28-3.25,2.62-.37-.19-.76-.61-.58-1.17.03-.1.15-.18.32-.33.2-.17.27-.37.59-.36,1.16-1.15,2.39-2.94,1.76-5.19-.28.2-.53.52-.78.82-.26.3-.48.61-.68.95-.57.25-1.06.71-1.63,1.11-1.05.74-2.28,1.39-3.58,1.91-.93.37-1.82.9-3.12.74-.31-.04-1.07-.8-1.01-1.23.03-.19.38-.5.59-.56.23-.07.51-.01.75-.04.71-.08,1.2-.34,1.79-.53,1.27-.41,2.42-.65,3.48-1.39.34-.24.66-.55.98-.82.31-.27.68-.54.95-.85.31-.36.54-.77.81-1.15.22-.3.75-.7.52-1.24-.34,0-.62.18-.88.4-.15.13-.22.32-.36.46-.16.15-.48.26-.75.43-.25.15-.48.39-.68.49-.11.06-.24.05-.36.1-.4.18-.79.47-1.2.69-.82.45-1.55.89-2.57,1.22-.7.23-1.5.27-2.15.21-.25-.2-.6-.28-.75-.55-.23-.43.05-.76.39-1.08,1.5.05,2.64-.49,3.71-.97.54-.24,1.11-.39,1.53-.63.34-.18.66-.46,1.01-.66.35-.2.76-.38,1.07-.59.21-.15.37-.39.55-.59.19-.2.41-.38.49-.62-.05-.16-.13-.3-.2-.46-.84.23-1.54.95-2.31,1.35-.73.38-1.57.77-2.47,1.03-.73.21-1.3.36-2.05.21-.73-.15-1.39-.39-1.33-1.36.23-.27.58-.42.84-.66,2.36.19,4.76-.36,5.96-1.64-.36-.01-.72-.3-1.14-.35-.18-.02-.38.06-.55,0-.84-.28-.16-1.33.13-1.89.37-.07.71-.37,1.1-.43.46-.07.82.19,1.3.18.18.23.36.47.59.65.66.07,1.43.36,2.26.36.36,0,.7-.11,1.07-.14.53-.05,1.12-.04,1.63-.01.3.01.6.13.88.12.41-.02.79-.3,1.14-.33M100.49,5.88c0,.68-.2,1.41-.24,2.03-.04.53.08,1.17.03,1.68-.02.24-.11.46-.14.7-.08.67-.03,1.31-.14,1.96-.09.57-.2,1.24-.35,1.79-.09.32-.3.61-.49.92-.41.67-.62,1.07-1.19,1.62-.24.24-.46.54-.7.74-.3.25-1.08.85-1.58.82-.56-.02-.96-.62-1.19-1.15-.09-.21-.19-.47-.14-.63.09-.29.53-.19.67-.49.34-.04.79-.05,1.09-.18,1.02-.45,2.03-1.58,2.27-2.96.27-1.49.47-3.22.32-4.83-.08-.89-.6-1.68-.91-2.34-.27-1.44.53-2.56,1.4-2.95.89-.4,1.34.77,1.86,1,.25.12.72.1,1.12.2.18.05.34.18.49.21.35.08.81,0,1.19.02.49.05.93.16,1.4-.11.16-.09.32-.47.63-.35.19.07.23.6.14.87-.04.14-.22.25-.38.42-.15.15-.23.36-.35.46-.11.09-.33.18-.49.28-.3.2-.55.39-1.05.43-1.14.09-2.23-.2-3.27-.16"/><path class="cls-1" d="M111.58,6.12c-.06,1.13,0,2.17-.21,3.19.31.09.64.16.98.24.73.15,1.22.21,1.86-.02,0-.42.2-.8.18-1.22-.03-.36-.22-.72-.25-1.12-.03-.47.07-.71.1-1.02-.97,0-1.88-.23-2.66-.05M116.18,6.19c.03.36-.16.71-.18,1.09-.02.3.15.63.18.98.03.47-.08.92-.07,1.43.27.05.53.24.98.27.73.05,1.57-.51,1.71.3.1.56-.39.97-.81,1.13-.52.2-1.28.14-1.92.23-.21,2.77-.06,6.03,0,8.93,0,.69.27,1.66.07,2.17-.1.27-.92.6-1.3.43-.36-.16-.26-.83-.35-1.4-.05-.29-.14-.51-.14-.7,0-.2.07-.46.07-.6,0-.22-.08-.43-.11-.66-.03-.37.03-.77.04-1.19,0-.78-.11-1.64-.11-2.48s-.17-1.75-.1-2.49c.06-.75.23-1.48.03-2.17-1.01,0-1.73-.29-2.73-.3-.48,1.55-.58,3.41-1.33,4.74-.12.21-.28.39-.42.6-.13.2-.22.47-.35.63-.69.84-1.7,1.47-3.05,1.78-.64.14-1.23.17-1.72-.2-.35-.26-.52-.82-.49-1.33.24-.4.75-.12,1.26-.11.6.01,1.06-.17,1.51-.36.18-.08.2-.24.42-.21.2-.22.53-.29.74-.49.24-.25.44-.7.66-1.06.63-1.01.74-2.34.95-3.89-.24-.02-.4.02-.6.01-.33-.03-.66-.25-.98-.24-.44.02-.62.65-1.12.5-.23-.09-.36-.81-.34-1.21.03-.76.96-1.92,1.78-1.91.5.01.85.36,1.26.69.22-.89.26-2.4-.18-3.12-.51-.15-1.04-.3-1.46-.57-.52.25-1.18.37-1.33-.34-.09-.4.03-1.4.21-1.58.28-.28.66-.83,1.12-.92.47-.1.8.06,1.3.13.49.96,2,.88,3.01,1.31.71-.33,1.53.09,2.34.09.3,0,.6-.09.91-.07.74.04,1.44.25,2.06.13.31-.06.63-.34.91-.36.38-.02.6.27.7.55-.39,1.22-1.4,1.84-3.03,1.84"/><path class="cls-1" d="M102.8,11.22c-.12.85-.27,1.66-.38,2.42.45.19,1.18.33,1.72.13.07-.83.13-1.67.14-2.56-.5.01-1,.01-1.48.01M101.15,15.86c-.72-.53-.14-1.47.04-2.14.15-.61.25-1.57.1-2.24-.06-.3-.28-.52-.35-.88-.22-1.22.36-2.12,1.12-2.25.79-.14.99.46,1.29.9.51.12.79.33,1.26.13.39-.16.47-.66.84-.67.27,0,.39.23.56.45.09.78-.22,1.51-.24,2.21-.01.2.06.4.03.59-.02.16-.16.26-.21.42-.05.17-.06.47-.1.7-.04.24-.14.51-.14.63-.01.35.16.63.07.91-.09.28-.4.51-.66.6-.81.29-2.09.04-2.91.27-.3.1-.41.29-.7.37M84.3,4.68c-.46.46-.78,1.06-1.05,1.73.6.39,1.88.5,2.7.21.29-.66-.15-1.29-.59-1.52.06-.15.11-.3.09-.52-.41-.01-.81,0-1.15.1M85.54,2.82c.46.15.97.36,1.5.38.57.02,1.07-.17,1.59-.17.48,0,.96.1,1.4.22,1.08.28,2.48.23,3.52.5.27-.1.67-.24.94-.23.36-.24.61-.59.98-.82.32.18.34.55.29.88-.63.95-1.71,1.58-3.19,1.75-.7.08-1.2-.12-1.82-.25-.59-.12-1.2-.15-1.63-.38-.49.08-1.06-.14-1.53.01.17.34.13.58.16,1.01.01.12.1.25.1.36.01.72-.7,1.85-1.33,2.09-.42.16-1.28.3-1.79.34-.49.04-1.05.01-1.53-.02-.29-.02-.56-.16-.85-.19-.54-.05-1.05.37-1.53.3-.13-.02-.33-.14-.52-.22-.53-.23-1-.77-.52-1.43.09-.08.22-.07.36-.04.77-.5,1.44-1.11,1.85-1.97-.45-.03-.86.24-1.3.27-.86.06-1.76-.26-2.64-.28-.35,0-.64.16-.98.24-1.09.24-2.07-.28-2.93-.53-.3.09-1.11.6-1.33.33-.1-.12-.03-.28-.03-.49-.01-.27-.12-.65-.06-.95.04-.23.32-.61.49-.81.32-.39.85-.89,1.5-.86.25,0,.47.2.74.29.21.07.43.03.59.09.29.12.47.48.75.58.51.06.97,0,1.46.02.93.07,1.69.53,2.7.54.81,0,1.98.1,2.02-.73-.05-.19-.36-.3-.4-.55-.05-.29.11-.72.2-.88.55-1.05,2.75-.8,2.9.53.03.3-.04.62-.13,1.07M82.29,14.16c-.03.25-.07.47-.1.72.37.09.8.11,1.24.13.77.03,1.56.07,2.15.05.06-.34,0-.74,0-1.04-1.12.22-2.41-.58-3.29.14M82.35,12.14c.51.29,1.24.11,1.89.18.4.04.93.3,1.4.15-.02-.35.17-.79.2-1.2-1.27-.04-2.42-.37-3.74-.23.11.34.19.71.25,1.1M85.77,16.64c-.51.19-1.29-.02-2.01-.02-.37,0-.73.16-1.04.17-.26.01-.53-.13-.75-.03-.11.05-.43.57-.55.79-.18.32-.3.78-.46,1.04-.26.45-.88,1.2-1.27,1.51-.16.12-.32.21-.49.36-.28.26-.55.52-.97.63-.33.08-.8.11-1.11-.06-.1-.05-.52-.52-.52-.75,0-.51.9-.59,1.3-.79.35-.17.69-.47,1.01-.76.67-.59.92-1.33,1.24-2.29.14-.42.38-.86.46-1.27.13-.7.1-1.5.06-2.18-.02-.4-.15-.79-.29-1.11-.24-.52-.97-1.19-.52-1.98.14-.25,1.01-1.03,1.3-1.08.48-.09,1.11.16,1.59.28.52.14,1.07.18,1.6.25,1.1.14,2.15.83,2.66-.25.36.06.49-.68,1.01-.53.4.11.29,1.5.17,1.86-.06.16-.2.3-.26.46-.13.32-.12.69-.23,1.04-.06.2-.2.4-.26.62-.14.51-.11,1.2-.07,1.89.08,1.11-.02,2.29-.03,3.32-.01.25.09.53.1.81,0,.22-.06.47-.07.71-.01.53.11,1.08.13,1.56.01.26-.04.48-.03.68,0,.33.07.58,0,.78-.1.27-.49.52-.81.5-.85-.06-.89-2.02-.95-2.99-.07-1.1,0-2.09.06-3.17M149.95,12.84c.1-.02.07.1.19.06.24-.11.43-.44.69-.65.07-.06.17-.07.23-.13.68-.67.6-2.21-.23-2.67-.21.18-.76.22-1.07.11-.22,1.17-.26,2.36-.13,3.54.13-.07.15-.25.32-.26M150.02,5.06c-.39.74,0,1.7-.2,2.64.69-.21,1.03-.95,1.4-1.48.24-.33.47-.6.46-1.07-.57.11-1.16-.03-1.66-.09M162.71,3.9c.49.21.93.06,1.49.15.33.05.7.17,1.08.22.39.06.83.25,1.07.22.35-.05.49-.51.78-.63.59-.23.98.38,1.21.61-.05.86-.06,1.68-.13,2.53-.04.53-.04,1.29-.23,1.76-.11.28-.35.52-.49.78-.15.27-.31.53-.58.66h-.49c-.13-.1-.25-.22-.36-.36-.2-.68.16-1.15.26-1.66.15-.79,0-1.6-.13-2.34-1.78-.09-3.39-.08-5.11-.13-.53-.01-1.05.13-1.59.18-.14.01-.28-.04-.42-.03-.25.01-.48.14-.75.17-.49.05-.99-.02-1.5-.02-.05.65-.27,1.46-.26,2.22,0,.49.25.87.19,1.24,0,.1-.05.04-.13.16-.19.29-.45,1.22-1.07.92-.15-.07-.46-.78-.55-1.04-.15-.4-.22-.9-.26-1.33-.12-1.28-.2-2.4-.1-3.51-.51.41-.82,1.29-1.43,1.7-.19.4-.41.77-.78.98-.02.17-.02.37-.19.39.36.42.83.72,1,1.33-.1.6.18,1.23.1,2.05-.1,1.1-.91,1.93-1.66,2.52-.24.19-.58.48-.81.56-.45.14-.85.04-1.27.2,0,.47-.14.97-.13,1.5,0,.26.11.54.1.78,0,.15-.14.29-.16.46-.18,1.14,0,2.52,0,3.68,0,.66-.12,1.6-.59,1.66-.22.03-.51-.13-.68-.32-.87-.96-.76-2.63-.75-4.48,0-.78.11-1.55.1-2.21,0-.14-.06-.28-.06-.39,0-.74.17-1.54.19-2.34.02-.56-.13-1.12-.1-1.69.06-1.18.19-2.35.19-3.45,0-.9-.28-1.86.07-2.54-.3-.1-.47-.35-.68-.55-.28-.81.07-1.57.35-2.09.67-.41,1.26-1.03,2.41-.77.78.29,1.19,1.07,1.88,1.52.23.15.65.37.91.35.51-.03.92-.97,1.6-.96.38,0,.99.77.85,1.33.41-.41,1.02-1.06,2.05-.86.31.37.97.94,1.79.96.6.02,1.59-.07,1.63-.69-.43-.28-1.01-.43-1.01-1s.56-.66.72-1.17c.17-.06.3-.18.46-.26.26-.14,1.03-.02,1.3.09.34.14.82.77.91,1.23.1.56-.14,1.16-.24,1.71"/><path class="cls-1" d="M158.25,7.15c.72-.16,1.21.19,1.82.24.67.43,1.59.51,2.67.5.34,0,.69-.08.94-.17.29-.1.51-.32.79-.34.38-.01.71.22.81.36.11.16.2.51.16.71-.08.51-.79.74-1.53.86-.65.1-1.5.21-2.12.24-.52.02-1.08.07-1.49.04-.58-.03-1.26-.1-1.92.05-.26.06-.45.22-.72.17-.2-.04-.53-.33-.58-.52-.12-.41.14-1.2.32-1.5.18-.27.63-.51.85-.64M165.9,11.39c.07.47-.25.55-.33.88-.29.07-.48.33-.78.47-.46.2-1.02.11-1.56.27-.29.84-.04,2.22-.33,3.06.43.44,1.03.72,1.59,1.03.05.09.14.12.17.23.66.27,1.65.99,2.53,1.13.48.06,1.1.13,1.6-.01.62-.18.34-1.13.97-1.34.55.57.31,1.98-.19,2.57-.18.21-.69.55-.98.73-.26.16-.62.33-.94.46-.43.18-.78.48-1.2.43-.61-.07-1.06-.91-1.5-1.29-.25-.22-.56-.36-.84-.55-.29-.19-.51-.48-.75-.65-.13-.09-.41-.16-.62-.29-.3-.18-.5-.37-.85-.45-.44-.1-.9-.02-1.4-.12-.38-.57.05-1.15.26-1.63.39-.92.29-2.07.32-3.19-.24-.07-1-.28-1.33-.12-.21.1-.46.88-.59,1.11-.15.26-.39.53-.58.82-.19.28-.33.6-.52.88-.18.26-.43.5-.65.75-.6.69-1.15,1.35-1.92,1.84-.5.18-1,.36-1.56.47-.14-.11-.14-.36-.39-.19-.12-.21-.3-.34-.49-.46.05-.22-.12-.23-.19-.32.1-.27.42-.32.39-.72.16-.08.28-.2.42-.29.92-.01,1.9-.72,2.54-1.29.22-.19.45-.33.65-.5.22-.18.35-.47.56-.72.35-.44.76-.69.88-1.31-.72-.2-1.53.6-2.11.02-.15-.15-.5-.83-.42-1.27.04-.24.33-.66.55-.85.42-.36,1.39-.72,2.02-.5.2.07.38.31.59.39.23.08.57.07.88.13,1.2.21,2.9.3,4.2.13.42-.06.92-.23,1.23-.17.24.02.44.3.67.43M131.99.73c.27,0,.54,0,.82,0,1.06.2,1.64.78,1.59,2.04,0,.25-.11.47-.1.71,1.09.32,2.33.16,3.58.3.51.06,1.12.07,1.69.18.25.05.56.12.84.13.32.01.68.07.85.03.28-.07.18-.19.36-.39.43-.5,1.38-.16,1.53.35-.05.83-.51,1.56-.71,2.48-.2.87-.44,1.77-.69,2.48-.09.28-.22.51-.45.69-.09.29-.29.47-.62.52-.05-.13-.27-.03-.36-.09,0-.01-.03-.16-.06-.2-.06-.06-.17-.06-.19-.09-.63-.78-.03-1.42.17-2.34.13-.65.23-1.23.19-1.85-1.16-.22-2.74-.26-4.03-.13-.11.75-.08,1.75-.36,2.28.9.42,2.14-.06,3.06.04.1.45-.37,1.04-.72,1.24-.28.16-.74.38-1.11.43-.75.11-1.71-.17-2.54-.14-.37.01-.66.15-.97.14-.49-.03-1.36-.33-1.4-.74-.03-.3.28-.44.36-.62.07-.15.14-.5.39-.59s.46.05.71-.07c.53-.26.76-1.33.49-1.96-.45-.19-1.15-.11-1.66-.02-.33-.09-.68-.1-1.01-.03-.21.48-.13.94-.22,1.4-.09.44-.37.78-.52,1.14-.46,1.08-1.34,1.82-2.89,1.71-.35-.03-1.07-.06-1.21-.25-.33-.46-.48-1.36.23-1.6.51-.17,1.09.15,1.62.12.44-.03.89-.28,1.08-.73.11-.27.34-1.11.06-1.43-.25-.28-1.58-.05-2.12-.12-.66-.08-1.31-.21-1.95-.37.21.6.11,1.32.1,2.11-.01.61.01,1.36.29,1.69.36.41-.48,1.01-.94.98-.39-.03-.71-.39-.98-.84-.26-.41-.42-.88-.49-1.36-.08-.56-.04-1.16-.16-1.69-.12-.5-.44-.91-.49-1.36-.05-.47.03-.94.23-1.37.15-.34.43-.81.65-.98.38-.28,1.16-.47,1.79-.33.78.17,1.12,1.02,1.79,1.22.7.2,1.8.11,2.57.27.32.07.59.35.91.32.42-.05.62-.53.78-.92-.33-.29-.9-.21-.98-.71-.1-.7.59-1.54,1.2-1.67"/><path class="cls-1" d="M132.83,12.53c.48.3,1.44.2,2.21.31.24.04.54.16.68.12.22-.06.22-.42.52-.3.32-.34.59-1.1,1.24-1.02.2.03.51.42.55.65.06.38-.25.67-.4,1.01-.22.54-.28,1.24-.45,1.89-.04.18-.24.37-.26.59-.07.67-.39,1.65-.23,2.09.12.32.44.29.58.58.6.28,1.34.7,2.18,1,.8.28,1.77.6,2.57.6.27,0,.63-.04.88-.14.13-.05.17-.17.29-.23.11-.05.27-.04.39-.1.2-.1.53-.43.65-.65.12-.23.07-.85.33-.88.32-.03.35,1.03.29,1.5-.11.86-.92,1.96-1.56,2.39-.32.2-.74.34-1.2.5-.41.14-.88.42-1.33.36-.45-.05-1.16-.79-1.56-.99-.43-.22-.9-.33-1.33-.61-1.1-.71-3.09-1.55-3.22-3.13-.08-1.04.15-2.06.45-2.87.09-.22.29-.43.17-.71-.85,0-2.25.13-3.23-.01-.38.64-.54,1.34-.94,1.93-.18.26-.46.48-.68.75-.22.26-.39.59-.62.82-.57.56-1.8,1.05-2.7,1.26-.74.17-1.56.28-2.37.35-.74.05-1.46.07-1.95-.15-.41-.18-.73-.35-.91-.81-.19-.47-.22-1.33.42-1.24-.1-.33.63-.69,1.07-.4.13.09.13.29.26.39.2.15.4.07.55.22.41-.15.88.02,1.36-.01.16-.01.32-.11.49-.13.35-.04.77-.03,1.17-.1.42-.08.72-.19.88-.5.36-.12.58-.35.88-.63.16-.15.37-.29.46-.42.09-.14.09-.32.16-.46.17-.32.48-.57.52-.94-.23-.05-.43-.11-.65-.1-.41.02-.88.24-1.24.2-.17-.02-.3-.18-.46-.22-.33-.11-.68-.05-.97-.22-.6.26-1.53.01-1.2-.74-.79-.49.11-1.45.61-1.73.36-.2,1.07-.35,1.63-.2.36.09.53.42.94.61.66.3,1.5-.01,2.05.25,0-.27.02-.49-.06-.65-.21-.42-1.01-.32-1.08-.81-.02-.16.07-.35.2-.52.23-.32.56-.68.88-.89.08-.06.78-.01,1.04.06.63.16,1.3.94,1.3,1.58,0,.17-.1.31-.13.49-.05.3,0,.67-.12,1.01"/></svg>