<?xml version="1.0" encoding="UTF-8"?><svg id="_圖層_2" xmlns="http://www.w3.org/2000/svg" viewBox="0 0 40 40"><defs><style>.cls-1{fill:#212121;}</style></defs><path class="cls-1" d="M8.76,13.77h8.23v5.89c0,2.38-.21,4.26-.62,5.64s-1.19,2.61-2.33,3.71-2.59,1.95-4.35,2.58l-1.61-3.4c1.66-.55,2.84-1.3,3.54-2.26s1.07-2.27,1.11-3.93h-3.98v-8.23Z"/><path class="cls-1" d="M23.93,13.77h8.23v5.89c0,2.38-.21,4.26-.62,5.64s-1.19,2.61-2.33,3.71-2.59,1.95-4.35,2.58l-1.61-3.4c1.66-.55,2.84-1.3,3.54-2.26s1.07-2.27,1.11-3.93h-3.98v-8.23Z"/></svg>