<?xml version="1.0" encoding="UTF-8"?><svg id="_圖層_1" xmlns="http://www.w3.org/2000/svg" viewBox="0 0 40 40"><defs><style>.cls-1{fill:#212121;}</style></defs><path class="cls-1" d="M28.5,36.67c-1.34,0-2.48-.47-3.42-1.41-.94-.94-1.41-2.08-1.41-3.42,0-.2.06-.65.18-1.33l-12.21-7.14c-.45.46-.97.82-1.56,1.08-.59.26-1.23.39-1.91.39-1.34,0-2.48-.47-3.42-1.41-.94-.94-1.41-2.08-1.41-3.42s.47-2.48,1.41-3.42c.94-.94,2.08-1.41,3.42-1.41.67,0,1.29.13,1.88.38s1.1.6,1.54,1.04l12.26-7.08c-.06-.21-.1-.43-.13-.65-.03-.22-.05-.45-.05-.69,0-1.34.47-2.48,1.41-3.42.94-.94,2.08-1.41,3.42-1.41s2.48.47,3.42,1.41c.94.94,1.41,2.08,1.41,3.42s-.47,2.48-1.41,3.42c-.94.94-2.08,1.41-3.42,1.41-.65,0-1.27-.12-1.84-.37-.57-.25-1.08-.58-1.52-.99l-12.35,6.97c.07.21.13.44.16.67.03.24.05.47.05.7s-.01.45-.03.65c-.02.2-.06.4-.12.62l12.32,7.08c.44-.42.95-.74,1.52-.98.57-.24,1.17-.35,1.82-.35,1.35,0,2.49.47,3.43,1.41.94.94,1.4,2.08,1.4,3.42s-.47,2.48-1.41,3.42c-.94.94-2.08,1.41-3.42,1.41ZM28.5,33.89c.58,0,1.07-.2,1.46-.59.39-.39.59-.88.59-1.47s-.2-1.07-.59-1.46c-.39-.39-.88-.59-1.46-.59s-1.07.2-1.46.59c-.39.39-.59.88-.59,1.47s.2,1.07.59,1.46c.39.39.88.59,1.46.59ZM8.17,22.06c.58,0,1.07-.2,1.46-.59.39-.39.59-.88.59-1.47s-.2-1.07-.59-1.46c-.39-.39-.88-.59-1.47-.59s-1.07.2-1.46.59c-.39.39-.59.88-.59,1.47s.2,1.07.59,1.46c.39.39.88.59,1.47.59ZM28.5,10.22c.58,0,1.07-.2,1.46-.59.39-.39.59-.88.59-1.46s-.2-1.07-.59-1.46c-.39-.39-.88-.59-1.46-.59-.58,0-1.07.2-1.46.59-.39.39-.59.88-.59,1.46s.2,1.07.59,1.46c.39.39.88.59,1.46.59Z"/></svg>