<?xml version="1.0" encoding="UTF-8"?><svg id="_圖層_1" xmlns="http://www.w3.org/2000/svg" viewBox="0 0 40 40"><defs><style>.cls-1{fill:#212121;}</style></defs><path class="cls-1" d="M13.33,31.11c-.75,0-1.4-.28-1.95-.83-.55-.55-.83-1.2-.83-1.95V6.11c0-.75.28-1.4.83-1.95.55-.55,1.2-.83,1.95-.83h17.22c.75,0,1.4.28,1.95.83.55.55.83,1.2.83,1.95v22.22c0,.75-.28,1.4-.83,1.95-.55.55-1.2.83-1.95.83H13.33ZM13.33,28.33h17.22V6.11H13.33v22.22ZM7.78,36.67c-.75,0-1.4-.28-1.95-.83-.55-.55-.83-1.2-.83-1.95V8.89h2.78v25h20v2.78s-20,0-20,0ZM13.33,28.33V6.11v22.22Z"/></svg>