<?xml version="1.0" encoding="UTF-8"?><svg id="_圖層_1" xmlns="http://www.w3.org/2000/svg" viewBox="0 0 40 40"><defs><style>.cls-1{fill:#212121;}</style></defs><path class="cls-1" d="M16.47,26.67h7.03c.42,0,.74-.14.97-.42.23-.28.34-.63.34-1.05v-3.14h-2.78v1.83h-4.08v-7.78h4.08v1.86h2.78v-3.14c0-.42-.11-.77-.34-1.06-.23-.29-.55-.44-.97-.44h-7.03c-.42,0-.74.15-.97.44-.23.29-.34.65-.34,1.06v10.36c0,.42.11.77.34,1.05.23.28.55.42.96.42ZM20,36.67c-2.29,0-4.44-.44-6.47-1.31-2.03-.88-3.8-2.07-5.31-3.58-1.51-1.51-2.7-3.28-3.58-5.31s-1.31-4.19-1.31-6.47.44-4.47,1.31-6.5,2.07-3.79,3.58-5.29c1.51-1.5,3.28-2.69,5.31-3.56,2.03-.88,4.19-1.31,6.47-1.31s4.47.44,6.5,1.31,3.79,2.06,5.29,3.56,2.69,3.26,3.56,5.29,1.31,4.19,1.31,6.5-.44,4.44-1.31,6.47c-.88,2.03-2.06,3.8-3.56,5.31-1.5,1.51-3.26,2.7-5.29,3.58s-4.19,1.31-6.5,1.31ZM20,33.89c3.87,0,7.15-1.35,9.85-4.06,2.69-2.7,4.04-5.98,4.04-9.83s-1.35-7.15-4.04-9.85c-2.69-2.69-5.98-4.04-9.85-4.04s-7.13,1.35-9.83,4.04c-2.7,2.69-4.06,5.98-4.06,9.85s1.35,7.13,4.06,9.83c2.7,2.7,5.98,4.06,9.83,4.06Z"/></svg>